<svg width="32" height="32" viewBox="0 0 32 32" fill="none" xmlns="http://www.w3.org/2000/svg">
<path d="M10 23C10.0937 22.907 10.1681 22.7964 10.2189 22.6746C10.2697 22.5527 10.2958 22.422 10.2958 22.29C10.2958 22.158 10.2697 22.0273 10.2189 21.9054C10.1681 21.7835 10.0937 21.6729 10 21.58L5.4 16.98L28.94 16.98C29.2052 16.98 29.4596 16.8746 29.6471 16.6871C29.8346 16.4995 29.94 16.2452 29.94 15.98C29.94 15.7148 29.8346 15.4604 29.6471 15.2729C29.4596 15.0853 29.2052 14.98 28.94 14.98L5.42 14.98L10 10.41C10.1863 10.2226 10.2908 9.96916 10.2908 9.70498C10.2908 9.44079 10.1863 9.18734 10 8.99998C9.81264 8.81373 9.55919 8.70919 9.295 8.70919C9.03082 8.70919 8.77736 8.81373 8.59 8.99998L2.23 15.36C2.1444 15.4421 2.07629 15.5407 2.02976 15.6498C1.98323 15.7589 1.95924 15.8763 1.95924 15.995C1.95924 16.1136 1.98323 16.231 2.02976 16.3401C2.07629 16.4493 2.1444 16.5478 2.23 16.63L8.58 23C8.67296 23.0937 8.78357 23.1681 8.90543 23.2189C9.02729 23.2696 9.15799 23.2958 9.29 23.2958C9.42201 23.2958 9.55272 23.2696 9.67458 23.2189C9.79644 23.1681 9.90704 23.0937 10 23Z" fill="black"/>
</svg>
